<svg width="35" height="35" viewBox="0 0 35 35" fill="none" xmlns="http://www.w3.org/2000/svg">
<path d="M8.75002 10.2083H16.0417C16.4285 10.2083 16.7994 10.362 17.0729 10.6354C17.3464 10.9089 17.5 11.2799 17.5 11.6666C17.5 12.0534 17.3464 12.4244 17.0729 12.6978C16.7994 12.9713 16.4285 13.125 16.0417 13.125H8.75002C8.36325 13.125 7.99231 12.9713 7.71882 12.6978C7.44533 12.4244 7.29169 12.0534 7.29169 11.6666C7.29169 11.2799 7.44533 10.9089 7.71882 10.6354C7.99231 10.362 8.36325 10.2083 8.75002 10.2083ZM18.9584 21.875H26.25C26.6368 21.875 27.0077 22.0286 27.2812 22.3021C27.5547 22.5756 27.7084 22.9465 27.7084 23.3333C27.7084 23.7201 27.5547 24.091 27.2812 24.3645C27.0077 24.638 26.6368 24.7916 26.25 24.7916H18.9584C18.5716 24.7916 18.2006 24.638 17.9272 24.3645C17.6537 24.091 17.5 23.7201 17.5 23.3333C17.5 22.9465 17.6537 22.5756 17.9272 22.3021C18.2006 22.0286 18.5716 21.875 18.9584 21.875ZM8.75002 16.0416H26.25C26.6368 16.0416 27.0077 16.1953 27.2812 16.4688C27.5547 16.7423 27.7084 17.1132 27.7084 17.5C27.7084 17.8868 27.5547 18.2577 27.2812 18.5312C27.0077 18.8047 26.6368 18.9583 26.25 18.9583H8.75002C8.36325 18.9583 7.99231 18.8047 7.71882 18.5312C7.44533 18.2577 7.29169 17.8868 7.29169 17.5C7.29169 17.1132 7.44533 16.7423 7.71882 16.4688C7.99231 16.1953 8.36325 16.0416 8.75002 16.0416Z" fill="black"/>
</svg>
