<svg width="65" height="65" viewBox="0 0 65 65" fill="none" xmlns="http://www.w3.org/2000/svg">
<g clip-path="url(#clip0_121_306)">
<path d="M32.9526 40.4539C37.3709 40.4539 40.9526 36.8721 40.9526 32.4539C40.9526 28.0356 37.3709 24.4539 32.9526 24.4539C28.5344 24.4539 24.9526 28.0356 24.9526 32.4539C24.9526 36.8721 28.5344 40.4539 32.9526 40.4539Z" stroke="#EEE6FF" stroke-width="4" stroke-linecap="round" stroke-linejoin="round"/>
<path d="M52.686 40.4539C52.331 41.2582 52.2251 42.1504 52.3819 43.0154C52.5388 43.8805 52.9512 44.6787 53.566 45.3072L53.726 45.4672C54.2218 45.9625 54.6152 46.5507 54.8836 47.1982C55.152 47.8457 55.2902 48.5397 55.2902 49.2405C55.2902 49.9414 55.152 50.6354 54.8836 51.2829C54.6152 51.9303 54.2218 52.5185 53.726 53.0139C53.2306 53.5097 52.6424 53.9031 51.995 54.1715C51.3475 54.4399 50.6535 54.5781 49.9526 54.5781C49.2517 54.5781 48.5577 54.4399 47.9103 54.1715C47.2628 53.9031 46.6746 53.5097 46.1793 53.0139L46.0193 52.8539C45.3908 52.2391 44.5926 51.8267 43.7275 51.6699C42.8625 51.513 41.9703 51.6189 41.166 51.9739C40.3772 52.3119 39.7046 52.8732 39.2308 53.5886C38.757 54.3041 38.5027 55.1424 38.4993 56.0005V56.4539C38.4993 57.8684 37.9374 59.2249 36.9372 60.2251C35.937 61.2253 34.5804 61.7872 33.166 61.7872C31.7515 61.7872 30.3949 61.2253 29.3947 60.2251C28.3945 59.2249 27.8326 57.8684 27.8326 56.4539V56.2139C27.812 55.3312 27.5263 54.4752 27.0127 53.7571C26.499 53.039 25.7813 52.492 24.9526 52.1872C24.1483 51.8322 23.2561 51.7263 22.3911 51.8832C21.526 52.04 20.7278 52.4524 20.0993 53.0672L19.9393 53.2272C19.444 53.7231 18.8558 54.1165 18.2083 54.3849C17.5609 54.6533 16.8668 54.7914 16.166 54.7914C15.4651 54.7914 14.7711 54.6533 14.1236 54.3849C13.4762 54.1165 12.8879 53.7231 12.3926 53.2272C11.8968 52.7319 11.5034 52.1437 11.235 51.4962C10.9666 50.8488 10.8284 50.1548 10.8284 49.4539C10.8284 48.753 10.9666 48.059 11.235 47.4115C11.5034 46.7641 11.8968 46.1759 12.3926 45.6805L12.5526 45.5205C13.1674 44.8921 13.5798 44.0938 13.7366 43.2288C13.8935 42.3637 13.7876 41.4715 13.4326 40.6672C13.0946 39.8785 12.5333 39.2058 11.8179 38.732C11.1024 38.2582 10.2641 38.004 9.40596 38.0005H8.95263C7.53814 38.0005 6.18158 37.4386 5.18139 36.4384C4.1812 35.4383 3.61929 34.0817 3.61929 32.6672C3.61929 31.2527 4.1812 29.8962 5.18139 28.896C6.18158 27.8958 7.53814 27.3339 8.95263 27.3339H9.19263C10.0753 27.3132 10.9313 27.0275 11.6494 26.5139C12.3675 26.0003 12.9145 25.2825 13.2193 24.4539C13.5743 23.6496 13.6802 22.7574 13.5233 21.8923C13.3665 21.0273 12.9541 20.229 12.3393 19.6005L12.1793 19.4405C11.6834 18.9452 11.29 18.357 11.0216 17.7096C10.7532 17.0621 10.6151 16.3681 10.6151 15.6672C10.6151 14.9663 10.7532 14.2723 11.0216 13.6249C11.29 12.9774 11.6834 12.3892 12.1793 11.8939C12.6746 11.398 13.2628 11.0046 13.9103 10.7362C14.5577 10.4678 15.2517 10.3297 15.9526 10.3297C16.6535 10.3297 17.3475 10.4678 17.995 10.7362C18.6424 11.0046 19.2306 11.398 19.726 11.8939L19.886 12.0539C20.5144 12.6686 21.3127 13.081 22.1777 13.2379C23.0428 13.3947 23.935 13.2889 24.7393 12.9339H24.9526C25.7413 12.5958 26.414 12.0346 26.8878 11.3191C27.3616 10.6037 27.6159 9.76531 27.6193 8.90721V8.45388C27.6193 7.03939 28.1812 5.68284 29.1814 4.68264C30.1816 3.68245 31.5381 3.12054 32.9526 3.12054C34.3671 3.12054 35.7237 3.68245 36.7239 4.68264C37.7241 5.68284 38.286 7.03939 38.286 8.45388V8.69388C38.2894 9.55197 38.5436 10.3903 39.0174 11.1058C39.4912 11.8212 40.1639 12.3825 40.9526 12.7205C41.7569 13.0755 42.6491 13.1814 43.5142 13.0246C44.3792 12.8677 45.1775 12.4553 45.806 11.8405L45.966 11.6805C46.4613 11.1847 47.0495 10.7913 47.6969 10.5229C48.3444 10.2545 49.0384 10.1163 49.7393 10.1163C50.4402 10.1163 51.1342 10.2545 51.7816 10.5229C52.4291 10.7913 53.0173 11.1847 53.5126 11.6805C54.0085 12.1759 54.4019 12.7641 54.6703 13.4115C54.9387 14.059 55.0768 14.753 55.0768 15.4539C55.0768 16.1548 54.9387 16.8488 54.6703 17.4962C54.4019 18.1437 54.0085 18.7319 53.5126 19.2272L53.3526 19.3872C52.7379 20.0157 52.3255 20.8139 52.1686 21.679C52.0118 22.544 52.1176 23.4362 52.4726 24.2405V24.4539C52.8107 25.2426 53.3719 25.9153 54.0874 26.3891C54.8028 26.8629 55.6412 27.1171 56.4993 27.1205H56.9526C58.3671 27.1205 59.7237 27.6824 60.7239 28.6826C61.7241 29.6828 62.286 31.0394 62.286 32.4539C62.286 33.8684 61.7241 35.2249 60.7239 36.2251C59.7237 37.2253 58.3671 37.7872 56.9526 37.7872H56.7126C55.8545 37.7906 55.0162 38.0449 54.3007 38.5187C53.5853 38.9925 53.024 39.6652 52.686 40.4539V40.4539Z" stroke="#EEE6FF" stroke-width="4" stroke-linecap="round" stroke-linejoin="round"/>
</g>
<defs>
<clipPath id="clip0_121_306">
<rect width="64" height="64" fill="white" transform="translate(0.952637 0.453857)"/>
</clipPath>
</defs>
</svg>
